# xmcd
#
# Track frame offsets:
#	150
#	18413
#	36112
#	52506
#	71141
#	83847
#	96108
#	108010
#	121761
#	133985
#	148800
#	161905
#	175822
#
# Disc length: 2475
#
# Revision: 1
# Processed by: cddbd v1.5.1PL0 Copyright (c) Steve Scherf et al.
# Submitted via: VisiTrax 2.9.5.180 - For more info visit www.synapsa.com
# Normalized: r0:DSETVAR1
#
DISCID=aa09a90d
DTITLE=Various Artist - CDX 200 November 1998
DYEAR=1998
DGENRE=
TTITLE0=South Sixty Five - A random act of senseless kindness
TTITLE1=Lonestar - Everything's changed
TTITLE2=Tim McGraw - For a little while
TTITLE3=Wynonna - Freedom
TTITLE4=Rodne Crowell/Johnny Cash - I walk the line revisited
TTITLE5=Monty Holmes - Leave my mama out of this
TTITLE6=Jon Randall - She don't believe in fairy tales
TTITLE7=LeAnn Rimes - These arms of mine
TTITLE8=Joni Harms - Two steppin'  Texas blue
TTITLE9=Keith Harling - Write it in stone
TTITLE10=Scooter Lee - Here lately
TTITLE11=Jeff Carson - Christmas memory
TTITLE12=Steven Paul McCollum - The funny little man all dressed in red
EXTD=
EXTT0=
EXTT1=
EXTT2=
EXTT3=
EXTT4=
EXTT5=
EXTT6=
EXTT7=
EXTT8=
EXTT9=
EXTT10=
EXTT11=
EXTT12=
PLAYORDER=
